<svg width="300" height="120" viewBox="0 0 300 120" xmlns="http://www.w3.org/2000/svg">
  <!-- Background -->
  <rect width="300" height="120" fill="#fdfdfc"/>
  
  <!-- Graphic Icon Section -->
  <g transform="translate(50, 20)">
    <!-- Open Book - Dark blue with white outline -->
    <path d="M30 40 L70 40 L70 60 L30 60 Z" fill="#1f2937" stroke="#ffffff" stroke-width="2"/>
    <!-- Book spine -->
    <path d="M30 40 L30 60" stroke="#ffffff" stroke-width="2"/>
    <!-- Book pages with fold line -->
    <path d="M30 40 L70 40 M30 50 L70 50 M30 60 L70 60" stroke="#ffffff" stroke-width="1" fill="none"/>
    <path d="M50 40 L50 60" stroke="#ffffff" stroke-width="1" fill="none"/>
    
    <!-- Graduation Cap - Orange, positioned above book -->
    <path d="M25 25 L75 25 L75 35 L25 35 Z" fill="#f59e0b"/>
    <path d="M30 35 L70 35 L70 40 L30 40 Z" fill="#f59e0b"/>
    <!-- Cap outline -->
    <path d="M25 25 L75 25 L75 35 L25 35 Z" stroke="#1f2937" stroke-width="1" fill="none"/>
    <path d="M30 35 L70 35 L70 40 L30 40 Z" stroke="#1f2937" stroke-width="1" fill="none"/>
    
    <!-- Tassel - Orange line extending from cap -->
    <circle cx="70" cy="30" r="2" fill="#f59e0b"/>
    <path d="M70 28 L75 25" stroke="#f59e0b" stroke-width="1"/>
    
    <!-- Human Figure/Head - Orange circle in book -->
    <circle cx="50" cy="50" r="8" fill="#f59e0b"/>
  </g>
  
  <!-- Text Elements Section -->
  <g transform="translate(150, 80)">
    <!-- Brand Name: AfayiGuide -->
    <text x="0" y="0" font-family="Arial, sans-serif" font-size="24" font-weight="bold" fill="#1f2937" text-anchor="middle">Afayi</text>
    <text x="0" y="25" font-family="Arial, sans-serif" font-size="24" font-weight="bold" fill="#f59e0b" text-anchor="middle">Guide</text>
    
    <!-- Tagline -->
    <text x="0" y="45" font-family="Arial, sans-serif" font-size="12" fill="#f59e0b" text-anchor="middle">Your Gateway to the Next Level</text>
  </g>
</svg> 